Coordinates
version=1
nRows=16
nColumns=36
inDegrees=yes

Units are S.I. units (second, meters, Newtons, ...)
If the header above contains a line with 'inDegrees', this indicates whether rotational values are in degrees (yes) or radians (no).

endheader
time	pelvis_tilt	pelvis_list	pelvis_rotation	pelvis_tx	pelvis_ty	pelvis_tz	hip_flexion_r	hip_adduction_r	hip_rotation_r	knee_angle_r	knee_angle_r_beta	ankle_angle_r	subtalar_angle_r	mtp_angle_r	hip_flexion_l	hip_adduction_l	hip_rotation_l	knee_angle_l	knee_angle_l_beta	ankle_angle_l	subtalar_angle_l	mtp_angle_l	lumbar_extension	lumbar_bending	lumbar_rotation	arm_flex_r	arm_add_r	arm_rot_r	elbow_flex_r	pro_sup_r	arm_flex_l	arm_add_l	arm_rot_l	elbow_flex_l	pro_sup_l
      0.36000000	      0.36911454	     -4.28810818	      8.92314275	      0.19385365	      0.97185838	     -0.16283922	      2.31820667	     10.81928271	      8.54105449	      3.72483306	      0.06501060	      6.86125191	      1.85533933	     -7.09013263	     27.52567297	     -3.55590117	      6.00456685	     63.28480631	      1.10452824	     -1.25952717	    -20.10321238	     -7.09013263	     -7.21662050	      3.59692899	     -1.27489354	     -5.35351283	     -9.04540168	      3.26358278	     24.73041086	    107.85899652	      5.75258270	    -12.38271254	     33.93825835	     31.95221367	    110.46133949
      0.37000000	      0.39925007	     -3.96502199	      8.12503397	      0.20469531	      0.97262160	     -0.16198803	      1.14701902	     10.57261217	      9.34287645	      3.18163412	      0.05552999	      7.32784895	      2.30186843	     -7.09770688	     28.09373015	     -3.17280106	      5.60957783	     61.12259942	      1.06679061	     -1.04646194	    -20.34961516	     -7.09770688	     -7.34166490	      3.28739093	     -0.24395142	     -4.63779501	     -9.24672116	      3.20090305	     25.42732738	    108.04102364	      5.26927901	    -12.56846495	     34.03617088	     31.73393226	    110.41188588
      0.38000000	      0.39232146	     -3.69441448	      7.29629084	      0.21555179	      0.97303441	     -0.16115805	      0.08321398	     10.34915029	     10.06219484	      2.72475886	      0.04755601	      7.78602966	      2.78649116	     -7.10568182	     28.61056912	     -2.86750874	      5.26842025	     58.72454871	      1.02493673	     -1.00670510	    -20.57851495	     -7.10568182	     -7.40543512	      3.04061727	      0.77147922	     -3.89385891	     -9.47168389	      3.15207834	     26.12358362	    108.13028987	      4.72826489	    -12.76576815	     34.14119405	     31.48697288	    110.25085921
      0.39000000	      0.40220846	     -3.46773559	      6.45644802	      0.22644249	      0.97321218	     -0.16038390	     -0.94928121	     10.14741091	     10.67136662	      2.35319149	      0.04107094	      8.31535965	      3.34623724	     -7.11834718	     29.02286259	     -2.63095808	      4.98597488	     56.08941470	      0.97894496	     -1.13652621	    -20.79637568	     -7.11834718	     -7.47840517	      2.85628618	      1.77736401	     -3.13261542	     -9.70042303	      3.07568857	     26.85009517	    108.34180530	      4.18909492	    -12.94382819	     34.32221639	     31.16146093	    110.11525584
      0.40000000	      0.25646152	     -3.32914131	      5.59020352	      0.23737610	      0.97287549	     -0.15960583	     -1.73965871	     10.00518293	     11.26245759	      2.08884752	      0.03645727	      8.72495549	      3.80369598	     -7.12316044	     29.54737806	     -2.49499083	      4.79452028	     53.30285064	      0.93031024	     -1.04204045	    -20.51733503	     -7.12316044	     -7.32108891	      2.75238374	      2.71153751	     -2.31583971	     -9.92200683	      3.09755534	     27.48743631	    108.35206025	      3.49635584	    -13.09388597	     34.37836396	     30.84072585	    109.95766607
      0.41000000	      0.21040473	     -3.23647642	      4.71305592	      0.24837424	      0.97243767	     -0.15888461	     -2.62829789	      9.89746221	     11.87909530	      1.85583400	      0.03239041	      9.26488841	      4.31130427	     -7.12779944	     29.85182589	     -2.44890607	      4.65984512	     50.27471076	      0.87745923	     -0.99604333	    -20.05077188	     -7.12779944	     -7.28967391	      2.73504803	      3.67952939	     -1.47746682	    -10.16270119	      3.15908437	     28.14432296	    108.37533204	      2.82973920	    -13.20057726	     34.41439160	     30.46275996	    109.80909138
      0.42000000	      0.33543554	     -3.22821093	      3.84294195	      0.25943645	      0.97196843	     -0.15823089	     -3.68027757	      9.86730446	     12.31871409	      1.66352604	      0.02903401	     10.08078705	      5.14341530	     -7.13790491	     29.88760448	     -2.54172517	      4.56789250	     47.06646833	      0.82146484	     -0.91351998	    -19.32421185	     -7.13790491	     -7.47669192	      2.82650208	      4.72423553	     -0.61937009	    -10.44611033	      3.27074792	     28.79428513	    108.58185004	      2.27683416	    -13.24829170	     34.50000481	     29.97931399	    109.73249925
      0.43000000	      0.06873892	     -3.61072499	      3.12352628	      0.27053549	      0.97051244	     -0.15780937	     -4.17787882	     10.26280802	     12.40702136	      1.63539869	      0.02854309	     10.38767252	      5.33973431	     -7.14005430	     30.48977562	     -2.93060646	      4.84562267	     43.98104958	      0.76761412	     -0.88357830	    -18.69754046	     -7.14005430	     -7.08665706	      3.40477193	      5.47666884	      0.23193440	    -10.72374794	      3.25399332	     29.31341971	    108.52294602	      1.39794559	    -13.27618391	     34.59678955	     29.72278931	    109.60192945
      0.44000000	      0.19885082	     -3.35273856	      2.12485106	      0.28191536	      0.96984887	     -0.15706091	     -5.29469000	      9.88500869	     13.19209956	      1.42809673	      0.02492499	     11.31243615	      6.25099501	     -7.14656391	     30.15337121	     -2.86074328	      4.68367859	     40.22157894	      0.70199898	     -0.94665480	    -16.99181618	     -7.14656391	     -7.27017638	      3.16790653	      6.53683855	      1.10503540	    -10.89723634	      3.49726402	     29.98095088	    108.66142934	      0.78790964	    -13.30684788	     34.53610574	     28.98589734	    109.47531879
      0.45000000	      0.15391836	     -3.52188626	      1.36909555	      0.29333322	      0.96845196	     -0.15665223	     -6.06122808	      9.98752372	     13.14347399	      1.44066114	      0.02514428	     12.22654651	      7.64788392	     -7.16741143	     30.18013025	     -3.14772477	      4.86601218	     36.68301457	      0.64023938	     -0.28348162	    -14.72070068	     -7.16741143	     -7.19550489	      3.47279210	      7.31740508	      1.99939450	    -11.12632734	      3.80802101	     30.47915591	    109.21216449	      0.04278480	    -13.31195858	     34.72305891	     28.38420883	    109.56771272
      0.46000000	      0.05979275	     -3.69457900	      0.61515047	      0.30482597	      0.96682998	     -0.15621951	     -6.82065622	     10.09414927	     13.56145332	      1.39855502	      0.02440939	     12.83466713	      8.06054601	     -7.17758546	     30.15855532	     -3.44515105	      5.08518796	     32.96366536	      0.57532449	     -0.26727946	    -12.87390312	     -7.17758546	     -7.06540329	      3.77553495	      8.07597508	      2.87008068	    -11.28067635	      3.92126574	     31.03314069	    109.37151569	     -0.75041317	    -13.29681568	     34.73403718	     27.84877905	    109.50548052
      0.47000000	     -0.08309243	     -3.90018945	     -0.06923746	      0.31644160	      0.96492947	     -0.15581294	     -7.52287981	     10.24135033	     13.93296712	      1.37855970	      0.02406041	     13.43514232	      8.46817305	     -7.18968311	     30.14896299	     -3.80826676	      5.26197664	     29.20869002	      0.50978781	      0.06291211	    -10.43329778	     -7.18968311	     -6.86465525	      4.10335454	      8.74621115	      3.71891112	    -11.38625310	      4.05569984	     31.57107123	    109.57459776	     -1.56228266	    -13.31102260	     34.79616475	     27.33132979	    109.49599083
      0.48000000	     -0.25896937	     -4.09889537	     -0.71746657	      0.32822373	      0.96280218	     -0.15543999	     -8.19189553	     10.38748375	     14.36523323	      1.38631766	      0.02419581	     14.02148797	      8.68569022	     -7.20191311	     30.11235000	     -4.18710446	      5.33119662	     25.40965117	      0.44348207	      0.41488608	     -7.71577979	     -7.20191311	     -6.62459286	      4.41474343	      9.36406677	      4.53421613	    -11.41892377	      4.13983940	     32.11937581	    109.74872196	     -2.39603151	    -13.30902600	     34.88754948	     26.84285702	    109.50969861
      0.49000000	     -0.51172731	     -4.28709141	     -1.29061227	      0.34010878	      0.96038146	     -0.15523512	     -8.76449355	     10.52306397	     14.80573292	      1.43477750	      0.02504159	     14.59995489	      8.70897698	     -7.20657753	     30.10085061	     -4.50540896	      5.53109376	     21.57086167	      0.37648256	      0.31989745	     -5.53991498	     -7.20657753	     -6.25665959	      4.73368892	      9.86623303	      5.30563385	    -11.42816783	      4.15806936	     32.69792302	    109.73288704	     -3.29905669	    -13.31818846	     34.96724986	     26.41385131	    109.42306632
      0.50000000	     -0.60533432	     -4.41773433	     -1.86334711	      0.35217381	      0.95805761	     -0.15495045	     -9.53687311	     10.58971868	     15.35410745	      1.48150262	      0.02585710	     15.29691157	      8.65424129	     -7.21257905	     29.88360621	     -4.86754550	      5.09323833	     17.80011653	      0.31067064	      0.61520981	     -2.56716596	     -7.21257905	     -6.10554779	      4.95441031	     10.38993200	      6.09132927	    -11.39014427	      4.17368142	     33.26208414	    109.76172614	     -4.10801802	    -13.34948444	     35.06849128	     25.93817867	    109.38864825
      0.51000000	     -0.76392884	     -4.54676211	     -2.46527862	      0.36445250	      0.95546449	     -0.15456022	    -10.23176157	     10.65115453	     16.05092027	      1.56928830	      0.02738925	     15.79187684	      8.48376068	     -7.22588160	     29.85863327	     -5.33664284	      3.70202852	     14.50415052	      0.25314518	      1.89467410	      1.72415412	     -7.22588160	     -5.87163375	      5.16692496	     10.90293662	      6.80858876	    -11.23971061	      4.12087973	     33.87955573	    109.92906291	     -4.96801248	    -13.40134688	     35.32558312	     25.49594145	    109.52629292
